<svg width="23" height="20" viewBox="0 0 23 20" fill="none" xmlns="http://www.w3.org/2000/svg">
<path d="M20 15C20.5733 15 21.0567 15.2 21.45 15.6C21.8433 16 22.0367 16.4667 22.03 17L14 20L7.00001 18V9H8.95001L16.22 11.69C16.74 11.8967 17 12.27 17 12.81C17 13.1233 16.8867 13.3967 16.66 13.63C16.4333 13.8633 16.1467 13.9867 15.8 14H13L11.25 13.33L10.92 14.27L13 15H20ZM16 1.23C16.7067 0.41 17.6067 0 18.7 0C19.6067 0 20.3733 0.333333 21 1C21.6267 1.66667 21.96 2.43333 22 3.3C22 3.98667 21.6667 4.80667 21 5.76C20.3333 6.71333 19.6767 7.51 19.03 8.15C18.3833 8.79 17.3733 9.74 16 11C14.6133 9.74 13.5933 8.79 12.94 8.15C12.2867 7.51 11.63 6.71333 10.97 5.76C10.31 4.80667 9.98668 3.98667 10 3.3C10 2.39333 10.3233 1.62667 10.97 1C11.6167 0.373333 12.3967 0.04 13.31 0C14.3767 0 15.2733 0.41 16 1.23ZM0.984009 9H5.00001V20H0.984009V9Z" fill="#F4F4F9"/>
</svg>
